<?xml version="1.0" standalone="no"?>
<!DOCTYPE svg PUBLIC "-//W3C//DTD SVG 20010904//EN"
 "http://www.w3.org/TR/2001/REC-SVG-20010904/DTD/svg10.dtd">
<svg version="1.0" xmlns="http://www.w3.org/2000/svg"
 width="675.000000pt" height="675.000000pt" viewBox="0 0 675.000000 675.000000"
 preserveAspectRatio="xMidYMid meet">
<metadata>
Created by potrace 1.10, written by Peter Selinger 2001-2011
</metadata>
<g transform="translate(0.000000,675.000000) scale(0.100000,-0.100000)"
fill="#000000" stroke="none">
<path d="M4755 6515 c-27 -8 -60 -14 -72 -15 -19 0 -54 -14 -103 -42 -8 -4
-22 -11 -30 -15 -78 -34 -203 -174 -249 -278 -13 -27 -29 -63 -37 -78 -8 -16
-14 -43 -14 -61 0 -17 -6 -40 -14 -51 -9 -13 -16 -69 -21 -170 -8 -182 -7
-237 6 -290 6 -22 14 -56 18 -75 5 -19 20 -57 35 -84 14 -27 26 -53 26 -57 0
-17 61 -96 117 -154 71 -72 75 -75 138 -104 28 -13 57 -27 65 -31 12 -6 16
-37 18 -166 1 -87 0 -168 -3 -179 -2 -11 -22 -28 -44 -39 -21 -10 -55 -36 -76
-57 -35 -37 -36 -41 -36 -114 0 -60 -3 -75 -15 -75 -14 0 -87 -49 -124 -83
-30 -28 -69 -49 -80 -42 -5 3 -10 17 -10 31 0 13 -4 24 -10 24 -5 0 -13 12
-16 28 -9 36 -98 165 -140 202 -19 16 -34 34 -34 39 0 6 -10 16 -22 22 -13 7
-39 24 -58 39 -51 40 -156 94 -225 114 -33 10 -72 25 -87 32 -14 8 -36 14 -47
14 -23 0 -40 8 -116 56 -62 39 -93 72 -120 127 -12 23 -29 43 -38 45 -9 2 -31
-17 -53 -47 -21 -28 -42 -51 -46 -51 -4 0 -15 12 -25 28 -47 76 -81 89 -134
50 -45 -34 -89 -134 -89 -205 0 -27 -4 -33 -22 -33 -13 0 -36 -7 -52 -15 -15
-8 -36 -15 -45 -15 -16 0 -114 -47 -169 -81 -61 -37 -246 -215 -262 -252 -6
-12 -19 -35 -30 -52 -11 -16 -33 -58 -49 -91 l-30 -62 -71 -7 c-38 -4 -73 -11
-76 -16 -3 -5 -16 -9 -28 -9 -34 0 -115 -56 -156 -107 -19 -24 -40 -49 -45
-56 -21 -24 -55 -98 -55 -118 0 -11 -5 -29 -11 -41 -16 -29 -13 -179 4 -230
50 -147 148 -258 266 -302 81 -30 155 -40 200 -26 30 8 38 7 58 -12 13 -12 23
-26 23 -32 0 -11 189 -196 201 -196 12 0 89 -53 89 -61 0 -4 -30 -23 -67 -41
-36 -18 -82 -41 -102 -51 -33 -17 -230 -145 -241 -157 -3 -3 -27 -23 -55 -45
-123 -98 -324 -329 -339 -388 -4 -18 -15 -29 -34 -33 -102 -23 -165 -56 -219
-113 -74 -79 -96 -153 -73 -237 18 -63 85 -129 140 -138 47 -7 138 2 146 15 8
14 40 11 53 -5 9 -11 7 -33 -9 -99 -11 -47 -20 -97 -20 -111 0 -31 33 -154 50
-186 42 -78 130 -91 170 -23 17 30 20 51 20 168 0 107 4 142 17 172 22 47 137
163 161 163 10 0 23 5 28 10 15 15 150 25 158 12 6 -10 -24 -87 -90 -230 -19
-41 -34 -77 -34 -82 0 -5 -3 -10 -7 -12 -5 -2 -17 -16 -29 -33 -11 -16 -31
-44 -43 -61 -13 -18 -27 -53 -32 -79 -5 -28 -19 -58 -33 -72 -33 -33 -60 -93
-79 -173 -14 -59 -14 -74 1 -162 19 -109 48 -158 96 -158 13 0 41 -10 62 -22
36 -21 37 -21 71 -3 28 15 38 17 54 7 28 -18 49 -15 86 14 29 22 33 31 33 69
0 46 24 75 63 75 26 0 51 64 39 99 -11 33 -5 51 17 51 62 0 260 162 328 267
10 15 30 41 45 56 16 16 28 34 28 41 0 7 10 33 23 57 23 42 26 44 74 47 59 3
69 -9 53 -67 -5 -21 -12 -97 -14 -170 -4 -108 -8 -136 -22 -152 -9 -10 -21
-19 -26 -19 -21 0 -68 -46 -78 -76 -12 -36 0 -74 24 -74 7 0 21 -9 31 -20 17
-19 17 -24 2 -92 -13 -63 -14 -75 -1 -99 16 -32 51 -59 76 -59 9 0 22 -9 28
-20 11 -21 71 -37 92 -24 7 5 42 9 77 9 60 0 65 2 92 35 17 19 32 46 36 60 3
14 12 35 19 47 8 13 15 60 18 117 3 93 4 97 43 148 22 29 43 60 47 68 4 8 12
24 19 35 7 11 24 38 37 60 14 23 31 50 38 60 6 11 17 31 22 44 6 13 24 44 40
68 17 24 30 50 30 58 0 8 7 31 16 52 28 63 32 76 38 113 4 19 19 62 36 95 54
111 80 175 87 207 3 18 9 38 13 43 12 17 42 118 50 170 5 28 16 79 25 115 52
205 85 481 85 702 l0 137 47 38 c168 137 298 314 388 528 9 22 22 54 29 70 8
17 17 45 20 63 20 89 46 -16 46 -186 0 -96 -4 -137 -15 -158 -8 -16 -15 -36
-15 -45 0 -16 -54 -126 -71 -143 -14 -15 -10 -46 5 -46 17 0 86 81 86 99 0 7
7 19 15 27 8 9 15 27 15 40 0 14 6 35 14 47 7 12 16 54 19 92 7 85 -8 321 -21
338 -22 28 -22 73 1 152 20 69 28 82 55 96 53 27 138 106 157 145 20 42 18
165 -3 172 -7 2 -12 11 -12 21 0 26 -82 107 -139 136 -33 16 -67 25 -98 25
l-48 0 3 142 c2 79 5 148 7 154 2 7 43 14 102 17 120 7 219 41 246 84 4 7 13
13 18 13 22 0 199 176 199 198 0 7 6 15 14 18 8 3 17 13 20 22 3 9 10 25 16
35 24 41 30 53 36 67 5 15 16 40 48 113 9 21 16 46 16 56 0 10 8 36 17 57 25
58 25 398 0 434 -9 14 -17 34 -17 46 0 11 -11 41 -25 65 -13 24 -29 54 -35 67
-5 12 -14 22 -20 22 -5 0 -10 5 -10 10 0 32 -186 170 -229 170 -9 0 -26 7 -37
15 -10 8 -35 15 -54 15 -19 0 -53 7 -75 15 -50 18 -115 18 -180 0z m240 -44
c27 -6 54 -16 59 -21 6 -6 18 -10 28 -10 18 0 60 -20 113 -55 34 -22 135 -126
135 -138 0 -5 7 -15 15 -23 17 -18 20 -50 5 -59 -5 -3 -10 -11 -10 -18 0 -8 3
-8 12 1 21 21 28 13 28 -33 0 -25 3 -45 8 -45 17 0 0 -157 -25 -230 -34 -102
-63 -170 -86 -202 -14 -18 -18 -36 -14 -55 5 -25 1 -31 -34 -51 -21 -12 -39
-27 -39 -33 0 -5 -17 -27 -37 -47 -21 -21 -61 -63 -90 -95 -36 -40 -59 -57
-76 -57 -14 0 -55 -13 -92 -30 -58 -26 -79 -30 -155 -30 -53 0 -105 6 -131 15
-29 11 -46 12 -53 5 -16 -16 -24 -12 -28 13 -2 15 -11 23 -28 25 -33 5 -142
97 -158 133 -6 16 -16 29 -22 29 -13 0 -36 56 -49 122 -16 78 -18 381 -3 386
7 2 12 18 12 35 0 18 7 45 15 61 8 15 15 37 15 47 0 10 4 20 9 23 4 3 20 29
35 58 39 75 179 218 215 218 6 0 11 4 11 10 0 5 12 13 28 16 15 4 33 11 39 17
42 32 240 43 348 18z m196 -1184 c-16 -16 -26 0 -10 19 9 11 15 12 17 4 2 -6
-1 -17 -7 -23z m-2026 -357 c14 -23 36 -45 48 -50 12 -5 33 -18 47 -29 22 -18
23 -20 7 -26 -28 -11 -137 48 -137 75 0 7 -7 10 -15 7 -8 -4 -17 -2 -20 3 -7
11 23 60 36 60 5 0 20 -18 34 -40z m195 -32 c51 -71 124 -121 223 -153 65 -22
123 -43 165 -61 18 -8 38 -14 45 -14 41 -1 279 -181 262 -198 -3 -4 -9 -2 -13
4 -4 5 -26 18 -49 28 -24 11 -43 23 -43 27 0 5 -11 11 -25 15 -14 3 -25 10
-25 14 0 5 -10 11 -22 15 -13 3 -32 10 -43 15 -11 5 -42 18 -70 30 -27 12 -59
25 -70 31 -11 5 -50 20 -86 32 -36 13 -86 35 -112 50 -25 15 -49 27 -54 27 -5
0 -40 28 -77 63 -58 52 -68 66 -62 85 10 31 28 28 56 -10z m-345 -198 c9 -30
-3 -41 -41 -38 -22 1 -39 -3 -44 -12 -5 -8 -22 -15 -38 -16 -15 -1 -48 -14
-73 -30 -24 -16 -51 -33 -60 -39 -67 -42 -106 -71 -133 -99 -46 -48 -106 -117
-106 -123 0 -3 -16 -31 -36 -64 -25 -40 -35 -66 -32 -84 5 -23 2 -25 -28 -25
-20 0 -34 5 -34 12 0 20 61 140 92 179 15 20 28 41 28 46 0 12 169 173 182
173 5 0 24 11 41 24 42 30 85 52 177 87 90 34 97 34 105 9z m1798 -95 c67 -31
112 -75 138 -134 l20 -46 -23 -50 c-33 -74 -52 -89 -112 -90 -55 0 -87 21
-102 67 -10 30 -5 120 7 133 19 19 8 52 -27 83 -30 27 -34 35 -24 47 18 22 64
18 123 -10z m-144 -61 c25 -31 25 -33 6 -58 -14 -18 -16 -18 -33 -3 -11 10
-23 13 -31 8 -11 -7 -10 -15 8 -44 21 -35 30 -130 13 -141 -10 -6 -70 56 -90
91 -55 99 60 232 127 147z m-701 -109 c63 -22 90 -41 158 -111 65 -66 124
-170 124 -217 0 -14 5 -50 11 -79 19 -89 -23 -306 -82 -420 -13 -26 -12 -35
16 -90 34 -67 34 -157 1 -252 -13 -37 -29 -73 -35 -79 -6 -6 -11 -16 -11 -22
-1 -17 -122 -130 -170 -157 -25 -14 -62 -31 -83 -38 -22 -7 -51 -18 -65 -26
-15 -8 -40 -14 -55 -14 -16 0 -37 -5 -48 -11 -26 -14 -190 -24 -354 -23 -181
2 -286 28 -400 102 -11 6 -30 17 -42 24 -13 6 -23 17 -23 25 0 7 -6 13 -14 13
-8 0 -18 9 -21 20 -3 11 -10 20 -13 20 -20 0 -82 159 -82 209 0 47 32 133 66
178 27 36 31 65 9 83 -8 7 -15 17 -15 23 0 6 -6 18 -13 26 -30 35 -70 151 -81
231 -13 96 0 206 34 284 26 61 139 187 191 213 98 48 116 53 210 53 84 0 134
-8 266 -41 43 -12 97 -1 138 27 11 8 29 14 40 14 11 0 29 7 39 15 11 8 31 15
45 15 14 0 33 5 41 10 23 15 170 12 218 -5z m764 -171 c4 -7 19 -15 33 -18 29
-7 24 -26 -6 -26 -25 0 -79 52 -79 76 0 16 2 16 23 -2 12 -10 25 -24 29 -30z
m-362 -54 c0 -5 -9 -10 -21 -10 -11 0 -17 5 -14 10 3 6 13 10 21 10 8 0 14 -4
14 -10z m-1952 -100 l37 -20 -4 -123 c-2 -67 -5 -126 -8 -130 -3 -5 -12 -2
-21 5 -10 8 -40 20 -68 27 -60 14 -126 2 -185 -35 -46 -29 -85 -82 -71 -96 11
-11 52 6 52 21 0 13 109 73 120 66 5 -3 -6 -26 -25 -51 -26 -34 -35 -55 -35
-85 0 -54 19 -49 51 14 25 50 81 96 118 97 7 0 31 -17 52 -39 33 -33 39 -45
39 -82 1 -24 9 -62 20 -84 11 -22 19 -48 20 -57 0 -9 5 -20 10 -23 22 -13 9
-54 -26 -84 -84 -74 -200 -96 -310 -58 -87 30 -184 134 -218 235 -28 80 -20
247 15 322 34 71 92 136 155 171 43 24 60 27 147 28 79 1 104 -3 135 -19z
m1965 -5 c38 -26 63 -68 87 -143 17 -55 1 -150 -36 -203 -35 -52 -155 -131
-172 -114 -4 3 0 20 7 38 8 18 16 48 18 67 3 19 10 41 16 49 6 7 10 28 8 46
-3 41 14 54 30 23 22 -43 41 -59 56 -47 24 21 11 49 -48 108 -21 21 -28 40
-33 91 -4 36 -10 75 -13 88 -4 18 -1 22 19 22 13 0 40 -11 61 -25z m-223
-1187 c-1 -79 -5 -172 -10 -208 -5 -36 -14 -95 -19 -132 -5 -37 -14 -91 -21
-120 -6 -29 -18 -80 -25 -113 -33 -146 -57 -241 -65 -260 -4 -11 -25 -68 -44
-126 -20 -59 -54 -141 -76 -183 -22 -43 -40 -86 -40 -98 0 -11 -6 -34 -14 -51
-7 -18 -23 -57 -35 -87 -24 -60 -53 -122 -61 -130 -3 -3 -15 -26 -28 -52 -13
-27 -28 -48 -33 -48 -5 0 -9 -6 -9 -13 0 -8 -8 -23 -18 -35 -10 -11 -27 -37
-37 -56 -20 -36 -45 -48 -45 -22 0 8 6 21 13 28 22 23 47 67 47 83 0 9 7 18
15 21 8 4 15 15 15 25 0 11 7 22 15 25 8 4 15 16 15 29 0 12 6 28 14 34 8 7
18 26 21 42 4 16 11 31 16 34 5 4 9 21 9 40 0 20 6 35 15 39 8 3 15 16 15 29
0 13 7 32 15 43 8 10 15 30 15 42 0 13 6 38 14 55 8 18 26 66 39 108 25 77 56
158 82 214 30 64 45 108 45 129 0 11 7 34 15 50 8 15 15 39 15 52 0 13 6 41
14 61 8 21 17 60 20 87 3 27 10 54 15 60 5 6 12 49 15 96 4 47 12 106 18 132
8 33 8 75 2 145 -10 95 -4 140 22 166 20 19 24 -4 24 -135z m-1320 32 c12 -7
12 -12 -4 -29 -11 -12 -26 -21 -35 -21 -23 0 -181 -79 -181 -91 0 -5 -7 -9
-15 -9 -15 0 -116 -58 -126 -72 -3 -5 -21 -17 -40 -27 -88 -47 -409 -380 -409
-424 0 -7 -7 -23 -16 -35 -13 -18 -19 -21 -30 -11 -26 21 -14 57 47 139 65 89
293 320 314 320 7 0 15 4 17 8 9 22 214 148 333 204 33 16 71 35 85 43 29 17
40 18 60 5z m865 -238 c51 -22 74 -38 84 -58 8 -16 18 -31 23 -33 5 -2 18 -24
29 -49 24 -55 33 -212 20 -352 -8 -96 -15 -122 -58 -217 -13 -28 -23 -54 -23
-58 0 -16 -141 -175 -155 -175 -3 0 -24 -8 -48 -19 -102 -45 -131 -51 -247
-50 -186 1 -295 39 -347 123 -30 47 -33 120 -7 182 15 35 89 144 119 175 8 9
15 21 15 27 0 6 13 37 29 69 35 70 51 120 51 157 0 14 7 29 15 32 8 4 15 11
15 18 1 27 51 110 94 156 106 113 239 138 391 72z m-1745 -540 c37 -37 70 -84
90 -129 5 -13 14 -23 20 -23 15 0 12 -75 -4 -115 -8 -19 -28 -41 -45 -49 -44
-23 -54 -20 -49 14 5 34 -17 64 -27 37 -4 -8 -26 -29 -50 -46 -76 -54 -183
-36 -235 39 -34 50 -32 125 4 180 28 43 99 100 125 100 9 0 25 7 35 15 11 8
37 15 59 15 32 0 46 -7 77 -38z m1110 -577 c0 -8 -4 -15 -10 -15 -5 0 -10 7
-10 15 0 8 5 15 10 15 6 0 10 -7 10 -15z m-613 -442 c39 -21 92 -35 137 -37
29 -1 49 -46 36 -80 -12 -32 -49 -35 -75 -6 -26 29 -45 25 -45 -9 0 -17 5 -33
10 -36 6 -3 10 -30 10 -58 0 -46 -3 -53 -27 -64 -30 -15 -53 -3 -53 28 0 10
-4 21 -10 24 -5 3 -10 17 -10 31 0 17 -5 24 -20 24 -23 0 -36 -37 -26 -76 4
-15 2 -32 -5 -40 -10 -13 -14 -12 -30 2 -11 10 -19 27 -19 40 0 13 -4 26 -10
29 -5 3 -10 19 -10 35 0 26 -21 46 -34 33 -3 -4 -6 -26 -6 -49 0 -57 -17 -65
-37 -17 -24 57 -25 273 0 300 9 11 17 25 17 31 0 7 8 20 18 30 16 18 19 16 82
-48 36 -36 84 -76 107 -87z m835 -9 c7 -4 53 -14 103 -21 155 -23 155 -23 161
-50 10 -37 -4 -143 -21 -169 -8 -13 -15 -33 -15 -44 0 -11 -5 -26 -10 -33 -6
-7 -16 -20 -23 -29 -7 -9 -23 -18 -37 -20 -24 -3 -25 0 -30 57 -4 52 -8 60
-25 60 -17 0 -21 -8 -25 -52 -6 -59 -31 -88 -62 -72 -21 11 -21 11 -8 64 11
50 3 85 -20 85 -18 0 -30 -26 -30 -66 0 -23 -32 -43 -38 -24 -2 6 -11 17 -19
26 -14 13 -14 17 1 33 9 10 16 33 16 52 0 20 7 44 15 55 33 44 8 91 -45 81
-53 -11 -50 22 6 65 35 26 65 27 106 2z"/>
<path d="M4810 6396 c0 -10 28 -13 41 -5 10 6 7 9 -13 9 -16 0 -28 -2 -28 -4z"/>
<path d="M4914 6385 c24 -18 59 -20 54 -2 -3 6 -20 13 -39 15 -32 2 -33 1 -15
-13z"/>
<path d="M4671 6371 c-46 -17 -66 -41 -35 -41 10 0 25 7 34 15 9 8 34 21 56
29 31 12 34 15 14 14 -14 0 -45 -7 -69 -17z"/>
<path d="M4427 6193 c-4 -3 -7 -12 -7 -19 0 -17 27 -7 34 12 5 14 -15 20 -27
7z"/>
<path d="M4390 6153 c0 -5 4 -15 10 -23 11 -18 25 -7 17 15 -6 15 -27 21 -27
8z"/>
<path d="M3918 4173 c-26 -17 -42 -48 -32 -65 8 -13 31 -9 38 7 4 11 21 15 64
15 32 0 62 3 65 7 4 3 -3 17 -15 30 -26 28 -80 31 -120 6z"/>
<path d="M3284 4082 c-27 -22 -37 -61 -18 -69 7 -3 21 3 31 12 13 13 27 16 64
12 60 -7 78 8 47 40 -27 28 -92 31 -124 5z"/>
<path d="M3983 4020 c-30 -12 -43 -41 -43 -93 0 -56 29 -97 69 -97 43 0 65 32
65 96 1 49 -2 59 -27 80 -31 26 -32 27 -64 14z"/>
<path d="M3353 3925 c-25 -10 -33 -22 -39 -50 -14 -74 16 -135 66 -135 38 0
62 32 68 88 4 41 0 52 -23 80 -30 36 -29 36 -72 17z"/>
<path d="M3858 3645 c-3 -3 -31 -10 -63 -15 -61 -10 -105 -40 -105 -71 0 -28
57 -69 95 -69 28 0 35 -5 44 -30 5 -16 15 -30 20 -30 11 0 12 2 16 37 1 11 19
38 39 59 46 47 48 83 7 107 -30 18 -44 21 -53 12z"/>
<path d="M4010 3349 c-57 -23 -159 -48 -307 -75 -116 -21 -120 -26 -77 -90 49
-72 115 -104 215 -104 75 0 121 20 173 74 59 63 91 160 61 189 -19 19 -29 20
-65 6z"/>
</g>
</svg>
