<?xml version="1.0" encoding="iso-8859-1"?>
<!-- Uploaded to: SVG Repo, www.svgrepo.com, Generator: SVG Repo Mixer Tools -->
<svg version="1.1" id="Layer_1" xmlns="http://www.w3.org/2000/svg" xmlns:xlink="http://www.w3.org/1999/xlink" 
	 viewBox="0 0 366.613 366.613" xml:space="preserve">
<g>
	<path style="fill:#FFB819;" d="M299.168,185.472H194.309c0,0-1.221-94.259-2.301-100.534l-7.35-65.983
		c-1.02-9.73-8.717-17.771-18.837-18.837c-11.627-1.224-22.047,7.21-23.271,18.837l-3.077,25.396
		c-0.59-0.018-1.179-0.045-1.773-0.045c0,0-25.48-2.291-36.144,3.893c-4.214,2.443-56.75,24.858-67.207,34.514
		c-0.001,0.001-0.002,0.001-0.002,0.002c-7.029,6.911-11.391,16.523-11.391,27.156c0,21.042,17.055,38.096,38.095,38.096h20.04
		v199.457c0,10.554,8.637,19.19,19.191,19.19h44.132c10.553,0,19.189-8.636,19.189-19.19v-49.468h97.54v49.468
		c0,10.554,8.637,19.19,19.191,19.19h44.129c10.555,0,19.191-8.636,19.191-19.19V229.959
		C343.656,205.39,323.738,185.472,299.168,185.472z"/>
	<polygon style="fill:#00BCB4;" points="81.092,297.955 81.092,335.461 115.844,335.461 115.844,351.738 128.853,351.738 
		128.853,335.461 163.604,335.461 163.604,297.955 	"/>
	<rect x="261.145" y="297.955" style="fill:#00BCB4;" width="82.512" height="37.506"/>
	<polygon style="fill:#006098;" points="81.092,260.449 81.092,297.955 315.408,297.955 315.408,314.232 328.416,314.232 
		328.416,297.955 343.656,297.955 343.656,260.449 	"/>
	<path style="fill:#D85C72;" d="M343.102,222.943H81.092v37.506h86.569v16.277h13.009v-16.277h162.986v-30.489
		C343.656,227.571,343.461,225.229,343.102,222.943z"/>
	<path style="fill:#00BCB4;" d="M299.168,185.472H81.092v37.471H98.79v16.277h13.007v-16.277h163.096v16.277h13.01v-16.277h55.199
		C339.734,201.707,321.352,185.472,299.168,185.472z"/>
	<path style="fill:#00BCB4;" d="M193.006,110.46H22.972c0.317,20.769,17.238,37.506,38.08,37.506h56.368v16.277h13.007v-16.277
		h63.317C193.534,135.477,193.28,121.862,193.006,110.46z"/>
	<path style="fill:#006098;" d="M192.008,84.938l-1.335-11.985H49.853c-7.002,3.743-12.732,7.199-15.503,9.759
		c-0.001,0.001-0.002,0.001-0.002,0.002c-7.029,6.911-11.391,16.523-11.391,27.156c0,0.198,0.012,0.393,0.015,0.59h146.695v16.277
		h13.005V110.46h10.334C192.686,97.157,192.341,86.871,192.008,84.938z"/>
	<path style="fill:#D85C72;" d="M186.495,35.447h-45.942l-1.079,8.904c-0.59-0.018-1.179-0.045-1.773-0.045
		c0,0-25.48-2.291-36.144,3.893c-3.097,1.796-32.292,14.378-51.704,24.755h13.692v16.278h13.007V72.953h114.121L186.495,35.447z"/>
	<circle style="fill:#1E252B;" cx="127.357" cy="91.706" r="9.382"/>
	<rect x="162.438" y="35.447" style="fill:#FFB819;" width="13.006" height="16.277"/>
</g>
</svg>